<svg xmlns="http://www.w3.org/2000/svg" width="250" height="47" fill="none" viewBox="0 0 250 47"><path fill="#0D0C23" fill-rule="evenodd" d="M15.554 22.4915C15.1606 23.2922 14.6189 23.9893 13.9303 24.581C13.241 25.173 12.4372 25.655 11.5182 26.0262C10.5999 26.3982 9.67494 26.6478 8.74562 26.7751C7.81556 26.9028 6.91266 26.8917 6.0381 26.7401C5.16303 26.5895 4.41861 26.282 3.8067 25.8172L4.49606 18.1904C5.13014 17.9584 5.92814 17.7202 6.89138 17.4764C7.85373 17.233 8.84324 17.0584 9.86065 16.9541C10.8781 16.8494 11.8404 16.8618 12.7492 16.989C13.6558 17.1167 14.3729 17.4242 14.8978 17.912C15.1819 18.1904 15.4234 18.4921 15.6201 18.8173C15.8168 19.1425 15.9372 19.4792 15.9813 19.8273C16.0899 20.8024 15.9482 21.6905 15.554 22.4915ZM5.54555 6.24513C6.00522 5.9434 6.55738 5.67607 7.20262 5.44369C7.84786 5.21218 8.50999 5.04908 9.18826 4.95635C9.8658 4.86401 10.5279 4.85165 11.1739 4.92139C11.8184 4.99122 12.388 5.18254 12.8799 5.49577C13.3724 5.80946 13.7387 6.26241 13.9788 6.85398C14.2195 7.44649 14.2856 8.19538 14.1762 9.10065C14.0889 9.82038 13.8202 10.4301 13.3724 10.9289C12.9239 11.4286 12.3763 11.8462 11.7318 12.1828C11.0858 12.52 10.4024 12.7868 9.68081 12.9834C8.9585 13.1814 8.26334 13.3267 7.59681 13.4191C6.92955 13.5123 6.34964 13.5706 5.85782 13.5931C5.36533 13.6166 5.04227 13.6281 4.88952 13.6281L5.54555 6.24513ZM19.0981 17.5634C18.748 16.7513 18.2781 16.0374 17.6872 15.4214C17.097 14.8065 16.396 14.3598 15.5871 14.0809C15.9372 13.7791 16.2815 13.3034 16.6206 12.653C16.9598 12.0035 17.2497 11.2948 17.4905 10.5287C17.7305 9.76205 17.895 8.99064 17.9823 8.21259C18.0697 7.435 18.0366 6.76735 17.8847 6.20978C17.5118 4.81717 16.9267 3.72581 16.1281 2.93627C15.3294 2.14719 14.4001 1.60151 13.3394 1.29931C12.2779 0.998443 11.1078 0.933937 9.82836 1.10798C8.54816 1.28211 7.24079 1.6245 5.90692 2.1353C5.90692 2.01951 5.91779 1.89753 5.93981 1.76985C5.96102 1.64264 5.97226 1.50878 5.97226 1.36913C5.97226 1.02096 5.80827 0.719621 5.48022 0.463867C5.15216 0.208425 4.77456 0.0578343 4.34829 0.0109994C3.92158 -0.0349754 3.50566 0.0630726 3.10105 0.307021C2.69599 0.550891 2.41705 0.998443 2.26429 1.64749C2.08899 3.73731 1.91414 5.90845 1.73928 8.16004C1.56406 10.4124 1.37835 12.6879 1.18147 14.9867C0.984522 17.285 0.787649 19.5662 0.5907 21.8297C0.393824 24.0936 0.196875 26.2701 0 28.3594C0.065772 28.9864 0.229834 29.4742 0.492481 29.8223C0.754762 30.171 1.06116 30.38 1.41123 30.4493C1.76094 30.5191 2.12775 30.4546 2.51035 30.2575C2.89287 30.061 3.22679 29.7176 3.51153 29.2303C4.38617 29.741 5.37077 30.072 6.46489 30.223C7.55864 30.3737 8.66854 30.3737 9.79532 30.223C10.9214 30.072 12.032 29.7879 13.1258 29.3695C14.2195 28.9519 15.2149 28.4292 16.1119 27.8027C17.009 27.1758 17.7636 26.4614 18.3765 25.6607C18.9887 24.8593 19.3932 23.9946 19.5907 23.0664C19.7874 22.1143 19.8417 21.1626 19.7543 20.2104C19.667 19.2587 19.4482 18.3769 19.0981 17.5634Z" clip-rule="evenodd"/><path fill="#0D0C23" fill-rule="evenodd" d="M50.713 36.0385C50.5937 36.8047 50.4249 37.6114 50.2089 38.4592C49.9914 39.3061 49.7367 40.0784 49.4443 40.7752C49.1519 41.4715 48.8267 42.0339 48.4696 42.4638C48.1109 42.8932 47.7261 43.0735 47.3144 43.0041C46.9892 42.9569 46.7834 42.7364 46.6968 42.3423C46.6102 41.9469 46.6102 41.4595 46.6968 40.8795C46.7834 40.2989 46.9514 39.6428 47.2009 38.9116C47.4497 38.1804 47.7538 37.4545 48.1109 36.7352C48.4696 36.0151 48.8755 35.325 49.3308 34.6632C49.7862 34.0018 50.2627 33.4499 50.7617 33.0091C50.8701 33.1482 50.9188 33.4963 50.9079 34.0539C50.8963 34.611 50.8315 35.2728 50.713 36.0385ZM61.7366 20.9246C61.4441 20.5764 61.0862 20.3794 60.6636 20.3326C60.241 20.2862 59.8125 20.5416 59.3789 21.0987C59.0967 21.6558 58.7395 22.19 58.306 22.7007C57.8717 23.2118 57.4221 23.6758 56.9558 24.0937C56.4903 24.5112 56.0458 24.8717 55.6232 25.173C55.2005 25.4752 54.8696 25.6957 54.631 25.8349C54.5444 25.0922 54.4956 24.2912 54.4847 23.4319C54.4731 22.573 54.4898 21.7026 54.5335 20.8204C54.5982 19.5665 54.7335 18.3016 54.9401 17.0243C55.146 15.7475 55.4442 14.4936 55.8341 13.2627C55.8341 12.6133 55.693 12.0848 55.4115 11.6784C55.1292 11.2723 54.7881 11.0166 54.3873 10.9123C53.9857 10.808 53.5747 10.8659 53.1513 11.0863C52.7287 11.3073 52.3657 11.708 52.0624 12.2877C51.8019 13.0542 51.5037 13.9131 51.1683 14.8647C50.8315 15.8168 50.4525 16.7861 50.0299 17.7728C49.6073 18.7602 49.1352 19.7176 48.615 20.6459C48.0949 21.5749 47.5261 22.3994 46.9077 23.1186C46.2901 23.8383 45.618 24.4017 44.892 24.8077C44.1653 25.2142 43.3804 25.394 42.5344 25.3476C42.1438 25.2314 41.8622 24.9182 41.6884 24.407C41.5152 23.8967 41.412 23.2578 41.3799 22.4918C41.3472 21.7256 41.3799 20.8839 41.4774 19.9667C41.5749 19.05 41.7051 18.1385 41.8673 17.2333C42.0303 16.3276 42.2092 15.4687 42.4042 14.6562C42.5991 13.8437 42.7832 13.1585 42.957 12.6013C43.2175 11.9285 43.2175 11.3647 42.957 10.9123C42.6966 10.4594 42.3394 10.1581 41.8841 10.0066C41.4287 9.85592 40.9515 9.8621 40.4532 10.0243C39.9542 10.1868 39.5963 10.5465 39.3802 11.1036C39.0114 12.0561 38.6753 13.1235 38.372 14.3076C38.0679 15.4917 37.8242 16.7168 37.6402 17.9817C37.4554 19.2475 37.3521 20.5014 37.331 21.7433C37.3296 21.8241 37.3332 21.901 37.3332 21.9814C36.8604 23.3312 36.4094 24.3513 35.9816 25.0339C35.4288 25.9167 34.8054 26.2997 34.1121 26.1831C33.808 26.0439 33.608 25.7192 33.5105 25.208C33.4123 24.6977 33.3796 24.0708 33.4123 23.3272C33.4458 22.5849 33.5265 21.7433 33.656 20.8027C33.787 19.8625 33.9492 18.8874 34.1441 17.8775C34.3398 16.867 34.5457 15.8522 34.7617 14.8303C34.9785 13.8088 35.1734 12.8452 35.348 11.9395C35.3262 11.127 35.1036 10.5063 34.681 10.0764C34.2583 9.6474 33.6669 9.47907 32.9089 9.57141C32.3888 9.80377 32.0033 10.106 31.7538 10.4771C31.5043 10.8483 31.3042 11.3245 31.1529 11.9046C31.0656 12.2068 30.9354 12.8103 30.7623 13.716C30.5884 14.6209 30.3665 15.6604 30.0959 16.8326C29.8246 18.0055 29.5053 19.2298 29.1364 20.5067C28.7676 21.7835 28.3559 22.9393 27.9013 23.9718C27.4452 25.0047 26.9469 25.8349 26.4049 26.4619C25.863 27.0883 25.2774 27.3441 24.6489 27.2279C24.3019 27.1581 24.08 26.7751 23.9825 26.0788C23.8851 25.382 23.8683 24.5236 23.9338 23.5017C23.9985 22.4803 24.1288 21.3598 24.3237 20.1413C24.5187 18.9223 24.7187 17.7675 24.9253 16.6757C25.1312 15.5849 25.321 14.6209 25.4949 13.7854C25.668 12.9495 25.7873 12.3923 25.8521 12.114C25.8521 11.4407 25.7109 10.9013 25.4294 10.4943C25.1472 10.0888 24.806 9.83294 24.4052 9.72825C24.0036 9.62395 23.5919 9.68188 23.1693 9.90229C22.7466 10.1232 22.3836 10.5239 22.0796 11.1036C21.9712 11.7305 21.8301 12.4565 21.6569 13.2804C21.4831 14.1044 21.3158 14.9518 21.1535 15.8226C20.9906 16.6934 20.8386 17.5465 20.6982 18.3825C20.557 19.2183 20.4537 19.9495 20.389 20.5764C20.3454 21.0638 20.2966 21.662 20.2428 22.3698C20.1882 23.0785 20.1613 23.8268 20.1613 24.616C20.1613 25.4059 20.2151 26.1892 20.3243 26.9668C20.4319 27.7448 20.6276 28.4588 20.9091 29.1083C21.1906 29.7586 21.5864 30.2923 22.0963 30.7103C22.6055 31.1282 23.2507 31.3602 24.0313 31.407C24.8329 31.453 25.532 31.3898 26.1285 31.2152C26.725 31.0412 27.2662 30.7682 27.7543 30.3966C28.2424 30.0259 28.6862 29.5845 29.0877 29.0733C29.4885 28.5631 29.8843 28.006 30.2749 27.402C30.643 28.2848 31.1202 28.9691 31.7057 29.4568C32.2906 29.9442 32.9089 30.2349 33.5593 30.3272C34.2089 30.4195 34.8708 30.322 35.543 30.0312C36.2144 29.7414 36.8211 29.2479 37.3638 28.5511C37.7209 28.1239 38.0577 27.6384 38.3734 27.1016C38.5073 27.3529 38.6499 27.5956 38.8106 27.8195C39.3424 28.5631 40.0633 29.0733 40.974 29.3522C41.9488 29.631 42.9025 29.6778 43.835 29.4918C44.7669 29.3062 45.6558 28.9691 46.5011 28.4818C47.3471 27.9941 48.1328 27.4082 48.8595 26.7229C49.5854 26.0381 50.219 25.3246 50.7617 24.581C50.7392 25.1152 50.729 25.6206 50.729 26.096C50.729 26.5723 50.7181 27.0883 50.6962 27.6459C49.6124 28.4588 48.5881 29.4339 47.6235 30.5711C46.6582 31.7084 45.813 32.9216 45.087 34.2103C44.361 35.4986 43.7914 36.8047 43.3804 38.1279C42.9679 39.4519 42.7672 40.6877 42.7781 41.8373C42.789 42.9864 43.0436 43.9902 43.5419 44.8491C44.0409 45.7084 44.8535 46.3235 45.981 46.695C47.1522 47.09 48.1815 47.101 49.0704 46.7299C49.9593 46.3583 50.7341 45.7429 51.3953 44.8841C52.0566 44.0251 52.5985 42.9864 53.0219 41.7675C53.4445 40.5485 53.7806 39.2774 54.0294 37.9542C54.2789 36.631 54.436 35.3298 54.5007 34.0539C54.5662 32.7766 54.5662 31.6385 54.5007 30.6405C56.3652 29.805 57.8935 28.7486 59.0858 27.4714C60.278 26.1954 61.2645 24.8483 62.045 23.4319C62.2836 23.0838 62.3651 22.6658 62.2894 22.1785C62.213 21.6907 62.029 21.2728 61.7366 20.9246Z" clip-rule="evenodd"/><path fill="#0D0C23" fill-rule="evenodd" d="M105.887 19.5889C105.952 19.0556 106.05 18.4928 106.181 17.9013C106.311 17.3097 106.474 16.7355 106.671 16.1788C106.866 15.6221 107.095 15.141 107.357 14.7348C107.618 14.3291 107.896 14.0392 108.19 13.8648C108.485 13.6913 108.783 13.7085 109.089 13.9168C109.416 14.1261 109.617 14.5666 109.694 15.2389C109.769 15.9126 109.693 16.6313 109.465 17.3967C109.235 18.1627 108.827 18.8813 108.239 19.554C107.651 20.2272 106.856 20.6673 105.854 20.8761C105.81 20.5521 105.821 20.1226 105.887 19.5889ZM117.208 21.0152C116.849 20.9 116.506 20.8881 116.179 20.9808C115.852 21.0735 115.645 21.3171 115.558 21.7118C115.383 22.4539 115.106 23.2136 114.724 23.9905C114.344 24.7679 113.875 25.5042 113.32 26.2003C112.765 26.8961 112.138 27.511 111.441 28.0442C110.744 28.5779 110.014 28.9607 109.252 29.1924C108.489 29.448 107.857 29.4767 107.357 29.2794C106.856 29.083 106.458 28.7461 106.165 28.2707C105.871 27.7952 105.658 27.221 105.527 26.5482C105.396 25.8754 105.32 25.1798 105.298 24.4602C106.54 24.5533 107.645 24.3158 108.615 23.7468C109.584 23.1791 110.406 22.4247 111.082 21.4853C111.757 20.5459 112.269 19.4905 112.617 18.3189C112.965 17.1477 113.162 15.9819 113.206 14.8218C113.227 13.7315 113.075 12.8097 112.748 12.0558C112.421 11.3022 111.98 10.7156 111.424 10.2984C110.87 9.88076 110.232 9.63711 109.513 9.56781C108.795 9.49805 108.064 9.60266 107.324 9.88076C106.431 10.2057 105.674 10.7332 105.054 11.4643C104.432 12.1948 103.915 13.0419 103.501 14.0042C103.087 14.9671 102.761 16.0049 102.521 17.1182C102.281 18.2319 102.107 19.328 101.998 20.4069C101.9 21.3749 101.848 22.3007 101.829 23.1941C101.783 23.3076 101.737 23.4166 101.688 23.538C101.35 24.3622 100.957 25.1683 100.512 25.9567C100.065 26.7455 99.5694 27.4068 99.0249 27.9401C98.4804 28.4738 97.9139 28.6592 97.3255 28.4968C96.9776 28.4045 96.7868 27.9745 96.7539 27.2095C96.7217 26.4436 96.759 25.4927 96.8679 24.356C96.9776 23.2197 97.1025 21.9894 97.2443 20.6673C97.3854 19.3452 97.4563 18.0814 97.4563 16.8749C97.4563 15.8309 97.2714 14.828 96.9008 13.8648C96.5302 12.9028 96.0237 12.1021 95.3819 11.4643C94.7387 10.8259 93.9932 10.4025 93.1438 10.1942C92.2938 9.98498 91.3794 10.1244 90.3992 10.6113C89.4183 11.0987 88.6399 11.7829 88.0632 12.6645C87.485 13.5465 86.9565 14.474 86.4778 15.4482C86.3031 14.7057 86.048 14.0162 85.7103 13.3779C85.3719 12.74 84.9589 12.1833 84.4685 11.7074C83.978 11.2325 83.4276 10.8612 82.8188 10.5942C82.2084 10.3279 81.5652 10.1942 80.8906 10.1942C80.2371 10.1942 79.6327 10.3279 79.0772 10.5942C78.5216 10.8612 78.0151 11.2029 77.5576 11.6205C77.1 12.0385 76.6863 12.5078 76.3157 13.03C75.9459 13.5518 75.6184 14.0683 75.3363 14.5781C75.2917 13.9751 75.2427 13.4476 75.1886 12.9947C75.1345 12.5426 75.0358 12.1599 74.8948 11.847C74.753 11.5335 74.552 11.2961 74.2903 11.1336C74.0286 10.9716 73.6588 10.8899 73.18 10.8899C72.9396 10.8899 72.6998 10.942 72.4608 11.0462C72.2203 11.1508 72.0076 11.2961 71.8234 11.4814C71.6378 11.6678 71.4967 11.8933 71.3988 12.1599C71.3001 12.4265 71.2738 12.7343 71.3169 13.0821C71.3381 13.3377 71.3988 13.6445 71.4967 14.0042C71.5946 14.3641 71.6867 14.8342 71.7745 15.4133C71.8614 15.9934 71.9323 16.6952 71.9864 17.5186C72.0412 18.3422 72.0573 19.3514 72.0354 20.5459C72.0135 21.7409 71.9323 23.1381 71.7905 24.7387C71.6487 26.3394 71.4251 28.1952 71.121 30.3058C71.0771 30.7931 71.2511 31.1877 71.6436 31.4892C72.0354 31.7903 72.482 31.9642 72.9834 32.011C73.4841 32.0574 73.9585 31.9642 74.4043 31.7329C74.8509 31.5003 75.1075 31.0945 75.1725 30.515C75.2376 29.4247 75.3633 28.265 75.5482 27.0351C75.7332 25.8061 75.9619 24.5882 76.2346 23.3818C76.5065 22.1758 76.8164 21.0275 77.1658 19.9368C77.5137 18.8464 77.9011 17.8841 78.3258 17.0489C78.7504 16.2136 79.1919 15.5471 79.6487 15.0482C80.1063 14.5494 80.5851 14.3 81.0865 14.3C81.6968 14.3 82.1697 14.5954 82.5081 15.1869C82.8451 15.7788 83.0848 16.539 83.2266 17.4661C83.3684 18.3944 83.4335 19.4097 83.4232 20.5111C83.4115 21.6129 83.3684 22.6742 83.2924 23.6947C83.2157 24.7158 83.1287 25.626 83.0307 26.4263C82.9328 27.2267 82.8619 27.778 82.8188 28.0791C82.8188 28.6128 83.0088 29.0357 83.3896 29.3491C83.7712 29.6621 84.1958 29.848 84.6644 29.9058C85.1329 29.9641 85.5736 29.8709 85.9881 29.6272C86.4018 29.3836 86.6408 28.9726 86.7066 28.3921C86.9244 26.7221 87.2241 25.0464 87.6049 23.3645C87.9857 21.6827 88.4221 20.1752 88.9125 18.8411C89.4022 17.5071 89.9468 16.4167 90.5461 15.5701C91.1448 14.7238 91.7821 14.3 92.4575 14.3C92.8054 14.3 93.0729 14.5556 93.2579 15.0655C93.4428 15.5758 93.5356 16.2715 93.5356 17.153C93.5356 17.8028 93.4867 18.4699 93.3887 19.1541C93.2908 19.8383 93.1767 20.5459 93.0452 21.2765C92.9151 22.0076 92.8003 22.7553 92.7024 23.5208C92.6044 24.2867 92.5555 25.0866 92.5555 25.9218C92.5555 26.5019 92.6095 27.1746 92.7185 27.9401C92.8274 28.7051 93.0342 29.4308 93.339 30.1146C93.6445 30.7993 94.0634 31.3789 94.5977 31.8543C95.1312 32.3297 95.8117 32.5677 96.6391 32.5677C97.881 32.5677 98.981 32.2834 99.94 31.7152C100.898 31.1471 101.721 30.4051 102.407 29.4886C102.442 29.4405 102.475 29.3893 102.509 29.3416C102.562 29.4772 102.609 29.6206 102.668 29.7496C103.136 30.7701 103.774 31.5585 104.58 32.1157C105.385 32.6723 106.333 32.9795 107.423 33.0378C108.512 33.0952 109.698 32.8807 110.984 32.3938C111.942 32.0225 112.775 31.5585 113.483 31.0019C114.191 30.4452 114.828 29.7667 115.395 28.9664C115.961 28.1661 116.478 27.2439 116.947 26.2003C117.416 25.1559 117.889 23.9618 118.368 22.6159C118.455 22.2455 118.373 21.9148 118.123 21.6244C117.873 21.3348 117.568 21.1318 117.208 21.0152Z" clip-rule="evenodd"/><path fill="#0D0C23" fill-rule="evenodd" d="M139.537 17.8132C139.428 18.5062 139.281 19.2698 139.097 20.1027C138.911 20.9366 138.678 21.7994 138.395 22.6918C138.112 23.5842 137.765 24.3884 137.352 25.1043C136.938 25.821 136.466 26.3899 135.933 26.8126C135.399 27.2353 134.786 27.4114 134.09 27.3407C133.742 27.2942 133.475 27.036 133.291 26.5659C133.105 26.0967 133.008 25.4975 132.997 24.7696C132.986 24.0422 133.046 23.2436 133.176 22.3745C133.307 21.5063 133.508 20.6546 133.78 19.8208C134.052 18.9879 134.384 18.2184 134.774 17.5138C135.166 16.8095 135.617 16.2635 136.128 15.8761C136.639 15.4887 137.2 15.3072 137.808 15.33C138.417 15.3537 139.069 15.6822 139.766 16.3163C139.721 16.6219 139.646 17.121 139.537 17.8132ZM151.132 20.5076C150.795 20.32 150.447 20.2792 150.089 20.3847C149.73 20.4902 149.474 20.8486 149.322 21.4589C149.235 22.1167 149.04 22.891 148.735 23.7834C148.43 24.6758 148.055 25.5216 147.61 26.3192C147.164 27.1178 146.653 27.7813 146.076 28.3095C145.5 28.8381 144.886 29.0789 144.234 29.0312C143.69 28.9847 143.309 28.6853 143.092 28.1334C142.874 27.5816 142.76 26.8895 142.75 26.0551C142.738 25.2222 142.815 24.2829 142.978 23.2378C143.141 22.1931 143.337 21.1542 143.565 20.1202C143.793 19.0876 144.027 18.0951 144.267 17.1442C144.505 16.1934 144.701 15.389 144.854 14.7317C145.028 14.1446 144.973 13.6459 144.69 13.2343C144.408 12.8242 144.055 12.5301 143.631 12.3541C143.206 12.178 142.777 12.1311 142.341 12.2133C141.906 12.2956 141.625 12.548 141.494 12.9702C140.211 11.7727 138.977 11.127 137.792 11.0332C136.606 10.9394 135.513 11.2213 134.514 11.8787C133.513 12.5359 132.628 13.4868 131.856 14.7317C131.084 15.9766 130.458 17.3323 129.98 18.7998C129.502 20.2672 129.203 21.7646 129.083 23.2905C128.963 24.8169 129.055 26.2085 129.36 27.4645C129.665 28.7205 130.202 29.7483 130.975 30.5459C131.746 31.3444 132.796 31.7439 134.123 31.7439C134.709 31.7439 135.275 31.6148 135.818 31.3565C136.362 31.0978 136.862 30.7926 137.319 30.4404C137.775 30.0884 138.178 29.7184 138.526 29.3309C138.873 28.9435 139.146 28.6209 139.341 28.3623C139.493 29.2077 139.744 29.9244 140.091 30.5111C140.439 31.0978 140.836 31.5799 141.282 31.9548C141.727 32.3302 142.195 32.6063 142.684 32.7828C143.174 32.9589 143.647 33.0469 144.103 33.0469C145.126 33.0469 146.082 32.6711 146.974 31.9195C147.865 31.1688 148.665 30.2466 149.372 29.1549C150.078 28.0628 150.659 26.9126 151.116 25.7031C151.573 24.4939 151.877 23.4197 152.029 22.48C152.181 22.1279 152.154 21.7584 151.948 21.3709C151.741 20.9835 151.469 20.6962 151.132 20.5076Z" clip-rule="evenodd"/><path fill="#0D0C23" fill-rule="evenodd" d="M215.016 39.5287C214.831 40.3215 214.543 40.9927 214.151 41.5405C213.759 42.0887 213.269 42.3745 212.68 42.398C212.31 42.4211 212.027 42.2112 211.831 41.7682C211.635 41.3247 211.499 40.7534 211.422 40.0538C211.345 39.3538 211.313 38.5721 211.324 37.7092C211.335 36.8463 211.368 35.995 211.422 35.1551C211.476 34.3157 211.542 33.5335 211.619 32.8108C211.694 32.0874 211.754 31.5285 211.798 31.1317C212.538 31.2248 213.154 31.5684 213.644 32.1637C214.135 32.7585 214.51 33.4639 214.771 34.2806C215.033 35.0969 215.185 35.9776 215.229 36.9222C215.272 37.8668 215.201 38.7355 215.016 39.5287ZM203.187 39.5287C203.002 40.3215 202.714 40.9927 202.321 41.5405C201.929 42.0887 201.439 42.3745 200.851 42.398C200.48 42.4211 200.197 42.2112 200.001 41.7682C199.805 41.3247 199.669 40.7534 199.593 40.0538C199.516 39.3538 199.483 38.5721 199.495 37.7092C199.505 36.8463 199.538 35.995 199.593 35.1551C199.647 34.3157 199.712 33.5335 199.789 32.8108C199.865 32.0874 199.925 31.5285 199.969 31.1317C200.709 31.2248 201.325 31.5684 201.814 32.1637C202.305 32.7585 202.681 33.4639 202.942 34.2806C203.204 35.0969 203.356 35.9776 203.4 36.9222C203.443 37.8668 203.372 38.7355 203.187 39.5287ZM191.048 19.6553C191.025 20.2146 190.976 20.7104 190.9 21.1419C190.824 21.5742 190.721 21.8476 190.59 21.9644C190.35 21.8241 190.055 21.4633 189.707 20.8795C189.359 20.2967 189.087 19.637 188.89 18.9024C188.695 18.1678 188.634 17.4452 188.711 16.7331C188.786 16.022 189.131 15.4685 189.74 15.0712C189.979 14.9314 190.186 14.9838 190.361 15.2288C190.536 15.4738 190.677 15.8294 190.786 16.2959C190.895 16.7628 190.971 17.2991 191.015 17.9055C191.058 18.5122 191.069 19.0951 191.048 19.6553ZM188.156 26.6355C187.818 27.0199 187.441 27.3524 187.028 27.6324C186.614 27.9125 186.189 28.1225 185.753 28.2623C185.318 28.4026 184.925 28.4372 184.577 28.3671C183.597 28.1575 182.845 27.7022 182.323 27.0026C181.799 26.303 181.467 25.4809 181.326 24.5363C181.184 23.5913 181.2 22.5823 181.375 21.5094C181.549 20.4365 181.843 19.4396 182.257 18.518C182.671 17.5965 183.172 16.8033 183.76 16.1387C184.348 15.4738 184.99 15.0601 185.688 14.8963C185.427 16.0859 185.34 17.3169 185.427 18.5877C185.514 19.859 185.797 21.0544 186.277 22.1739C186.581 22.8513 186.946 23.4687 187.371 24.0285C187.796 24.5887 188.313 25.0668 188.924 25.4632C188.749 25.86 188.493 26.2506 188.156 26.6355ZM224.314 20.0051C224.379 19.4689 224.477 18.9024 224.608 18.3076C224.738 17.7133 224.902 17.1357 225.098 16.576C225.294 16.0158 225.522 15.532 225.784 15.124C226.046 14.7161 226.324 14.424 226.617 14.2491C226.911 14.0743 227.211 14.0915 227.516 14.3015C227.843 14.5119 228.044 14.9549 228.12 15.631C228.196 16.3079 228.12 17.0306 227.892 17.8007C227.663 18.5704 227.255 19.2935 226.666 19.9696C226.079 20.6469 225.283 21.0895 224.281 21.2995C224.237 20.9732 224.248 20.5418 224.314 20.0051ZM237.483 20.0051C237.548 19.4689 237.646 18.9024 237.777 18.3076C237.908 17.7133 238.072 17.1357 238.267 16.576C238.463 16.0158 238.692 15.532 238.953 15.124C239.215 14.7161 239.493 14.424 239.787 14.2491C240.081 14.0743 240.381 14.0915 240.686 14.3015C241.012 14.5119 241.213 14.9549 241.29 15.631C241.366 16.3079 241.29 17.0306 241.061 17.8007C240.833 18.5704 240.424 19.2935 239.835 19.9696C239.248 20.6469 238.452 21.0895 237.45 21.2995C237.407 20.9732 237.417 20.5418 237.483 20.0051ZM249.721 22.0519C249.47 21.7607 249.165 21.5564 248.806 21.4393C248.447 21.323 248.104 21.3114 247.776 21.4047C247.45 21.4978 247.243 21.7429 247.156 22.1393C246.981 22.8859 246.703 23.6498 246.322 24.4306C245.941 25.2128 245.473 25.9532 244.917 26.6528C244.362 27.3524 243.735 27.9711 243.039 28.5074C242.341 29.044 241.611 29.4289 240.849 29.6615C240.086 29.919 239.455 29.9478 238.953 29.7494C238.452 29.5514 238.055 29.2132 237.761 28.7351C237.467 28.2565 237.254 27.6795 237.123 27.0026C236.993 26.3265 236.917 25.6269 236.895 24.9034C238.137 24.9971 239.243 24.7582 240.212 24.1861C241.181 23.6148 242.004 22.8562 242.679 21.9116C243.354 20.9674 243.866 19.9061 244.215 18.728C244.563 17.5499 244.759 16.378 244.803 15.2115C244.824 14.1151 244.672 13.1878 244.345 12.4296C244.019 11.6719 243.578 11.0824 243.022 10.6629C242.466 10.2426 241.83 9.99794 241.11 9.92787C240.392 9.85772 239.661 9.96338 238.921 10.2426C238.028 10.5697 237.271 11.1001 236.65 11.8348C236.029 12.5699 235.512 13.4217 235.098 14.3889C234.683 15.3575 234.357 16.4006 234.117 17.5206C233.877 18.6401 233.703 19.7427 233.595 20.8271C233.489 21.8796 233.431 22.8868 233.418 23.8509C233.335 24.0431 233.248 24.2362 233.153 24.4306C232.772 25.2128 232.303 25.9532 231.748 26.6528C231.193 27.3524 230.566 27.9711 229.869 28.5074C229.172 29.044 228.442 29.4289 227.68 29.6615C226.916 29.919 226.285 29.9478 225.784 29.7494C225.283 29.5514 224.886 29.2132 224.592 28.7351C224.298 28.2565 224.085 27.6795 223.954 27.0026C223.824 26.3265 223.747 25.6269 223.726 24.9034C224.967 24.9971 226.073 24.7582 227.042 24.1861C228.011 23.6148 228.834 22.8562 229.509 21.9116C230.185 20.9674 230.696 19.9061 231.045 18.728C231.393 17.5499 231.59 16.378 231.634 15.2115C231.655 14.1151 231.503 13.1878 231.176 12.4296C230.849 11.6719 230.408 11.0824 229.852 10.6629C229.297 10.2426 228.66 9.99794 227.941 9.92787C227.222 9.85772 226.492 9.96338 225.751 10.2426C224.858 10.5697 224.101 11.1001 223.481 11.8348C222.859 12.5699 222.342 13.4217 221.928 14.3889C221.514 15.3575 221.188 16.4006 220.948 17.5206C220.708 18.6401 220.534 19.7427 220.425 20.8271C220.364 21.4388 220.322 22.0318 220.291 22.6142C220.081 22.806 219.876 22.9991 219.657 23.1886C218.906 23.842 218.116 24.4306 217.288 24.9558C216.459 25.4809 215.599 25.9124 214.706 26.2506C213.812 26.5888 212.898 26.7931 211.961 26.8627L213.988 3.62989C214.118 3.13987 214.053 2.70885 213.792 2.33556C213.53 1.96219 213.192 1.70563 212.778 1.56581C212.364 1.42551 211.923 1.43753 211.455 1.60045C210.986 1.76424 210.6 2.13752 210.295 2.71992C210.142 3.6068 209.984 4.81951 209.821 6.35893C209.657 7.89835 209.494 9.57807 209.331 11.3975C209.168 13.2171 209.004 15.0947 208.841 17.0306C208.677 18.9672 208.535 20.7747 208.416 22.454C208.41 22.5286 208.406 22.596 208.401 22.6698C208.21 22.8428 208.025 23.0173 207.828 23.1886C207.076 23.842 206.286 24.4306 205.458 24.9558C204.63 25.4809 203.77 25.9124 202.877 26.2506C201.983 26.5888 201.068 26.7931 200.132 26.8627L202.158 3.62989C202.289 3.13987 202.224 2.70885 201.962 2.33556C201.7 1.96219 201.363 1.70563 200.949 1.56581C200.535 1.42551 200.094 1.43753 199.625 1.60045C199.156 1.76424 198.77 2.13752 198.466 2.71992C198.313 3.6068 198.155 4.81951 197.992 6.35893C197.828 7.89835 197.664 9.57807 197.501 11.3975C197.338 13.2171 197.175 15.0947 197.011 17.0306C196.848 18.9672 196.706 20.7747 196.586 22.454C196.584 22.4878 196.582 22.5184 196.58 22.5521C196.237 22.7221 195.864 22.8713 195.459 22.9965C195.045 23.1252 194.577 23.2011 194.054 23.2241C194.141 22.8038 194.211 22.3373 194.266 21.8241C194.32 21.3114 194.365 20.7747 194.397 20.2146C194.43 19.6553 194.44 19.0951 194.43 18.5353C194.418 17.9752 194.391 17.4624 194.348 16.9954C194.239 15.9932 194.038 15.0424 193.744 14.1439C193.449 13.2464 193.052 12.4944 192.551 11.8872C192.05 11.2808 191.423 10.8725 190.672 10.6629C189.92 10.453 189.043 10.5227 188.041 10.8725C186.559 10.6629 185.225 10.8089 184.038 11.3101C182.851 11.8121 181.821 12.5406 180.95 13.4967C180.079 14.4537 179.365 15.5786 178.81 16.8734C178.254 18.1678 177.883 19.4977 177.698 20.8618C177.62 21.4402 177.582 22.0159 177.57 22.5903C177.233 23.3298 176.864 23.9761 176.457 24.5185C175.88 25.2883 175.28 25.9181 174.66 26.4078C174.038 26.8978 173.423 27.2711 172.813 27.5277C172.203 27.7847 171.658 27.9596 171.179 28.0524C170.613 28.1691 170.068 28.1811 169.546 28.0874C169.023 27.9946 168.543 27.7261 168.108 27.2827C167.759 26.9564 167.492 26.4313 167.307 25.7082C167.122 24.9851 167.013 24.1634 166.98 23.2415C166.948 22.32 166.98 21.3576 167.078 20.3549C167.176 19.3521 167.345 18.4013 167.585 17.5033C167.824 16.6053 168.129 15.8006 168.5 15.0885C168.869 14.3779 169.305 13.87 169.807 13.5669C170.089 13.6139 170.265 13.7941 170.33 14.1088C170.395 14.424 170.411 14.7973 170.379 15.2288C170.346 15.6607 170.297 16.1037 170.232 16.5582C170.166 17.0133 170.133 17.3928 170.133 17.6955C170.243 18.3254 170.455 18.8155 170.771 19.1653C171.087 19.515 171.441 19.7196 171.833 19.7773C172.225 19.8359 172.611 19.737 172.993 19.4799C173.374 19.2238 173.685 18.8155 173.924 18.2552C173.946 18.2788 173.978 18.2903 174.022 18.2903L174.48 13.8469C174.611 13.2402 174.523 12.704 174.218 12.2374C173.913 11.7709 173.511 11.5023 173.009 11.4326C172.377 10.453 171.522 9.93407 170.444 9.87547C169.366 9.81734 168.26 10.1964 167.127 11.0127C166.43 11.5498 165.815 12.2897 165.281 13.2344C164.747 14.1794 164.312 15.2288 163.974 16.3833C163.635 17.5379 163.396 18.7572 163.255 20.0401C163.113 21.323 163.086 22.5712 163.173 23.7834C163.26 24.9971 163.462 26.1401 163.778 27.2125C164.093 28.2858 164.535 29.1839 165.102 29.9065C165.581 30.5364 166.124 30.9976 166.735 31.2893C167.345 31.5808 167.982 31.7611 168.646 31.8312C169.311 31.9009 169.97 31.8716 170.624 31.7438C171.277 31.616 171.899 31.4353 172.486 31.2014C173.249 30.8986 174.033 30.5133 174.84 30.0468C175.645 29.5807 176.418 29.0205 177.16 28.3671C177.549 28.0235 177.924 27.6488 178.287 27.2471C178.452 27.6857 178.636 28.1101 178.859 28.5074C179.447 29.5568 180.242 30.4085 181.244 31.0615C182.245 31.7145 183.477 32.0288 184.937 32.0061C186.506 31.9826 187.954 31.5574 189.283 30.729C190.612 29.9016 191.701 28.6818 192.551 27.0727C193.824 27.0727 195.075 26.8481 196.306 26.4019C196.296 26.5431 196.286 26.6918 196.276 26.8281C196.189 28.0644 196.145 28.9037 196.145 29.3472C196.123 30.1169 196.075 31.0673 195.998 32.1983C195.922 33.3298 195.873 34.5194 195.852 35.7672C195.83 37.015 195.873 38.2747 195.982 39.5465C196.091 40.8174 196.319 41.9723 196.668 43.0106C197.016 44.048 197.512 44.9286 198.155 45.6522C198.798 46.3749 199.642 46.8068 200.688 46.9466C201.798 47.1095 202.757 46.8996 203.563 46.3167C204.369 45.7334 205.023 44.9348 205.524 43.9202C206.025 42.9049 206.379 41.7331 206.586 40.4036C206.793 39.0742 206.852 37.7385 206.765 36.3971C206.679 35.0557 206.45 33.7906 206.079 32.6013C205.708 31.4113 205.197 30.4316 204.543 29.6615C204.936 29.5456 205.404 29.3242 205.949 28.997C206.493 28.6707 207.054 28.3032 207.632 27.8948C207.774 27.7945 207.913 27.6888 208.055 27.5858C208.002 28.4124 207.975 29.0019 207.975 29.3472C207.953 30.1169 207.904 31.0673 207.828 32.1983C207.752 33.3298 207.703 34.5194 207.681 35.7672C207.66 37.015 207.703 38.2747 207.812 39.5465C207.92 40.8174 208.149 41.9723 208.497 43.0106C208.846 44.048 209.342 44.9286 209.984 45.6522C210.627 46.3749 211.471 46.8068 212.517 46.9466C213.627 47.1095 214.587 46.8996 215.393 46.3167C216.198 45.7334 216.852 44.9348 217.353 43.9202C217.854 42.9049 218.208 41.7331 218.416 40.4036C218.622 39.0742 218.682 37.7385 218.595 36.3971C218.508 35.0557 218.279 33.7906 217.909 32.6013C217.538 31.4113 217.027 30.4316 216.372 29.6615C216.765 29.5456 217.233 29.3242 217.778 28.997C218.323 28.6707 218.883 28.3032 219.461 27.8948C219.761 27.6826 220.06 27.4638 220.356 27.2387C220.469 28.3795 220.71 29.3801 221.095 30.2216C221.563 31.2484 222.2 32.0412 223.006 32.6013C223.812 33.1606 224.76 33.4701 225.85 33.5282C226.939 33.5859 228.125 33.3706 229.412 32.8806C230.37 32.5077 231.203 32.0412 231.911 31.4814C232.619 30.9212 233.256 30.239 233.823 29.4347C233.856 29.388 233.887 29.3374 233.919 29.2904C234.02 29.6171 234.131 29.9309 234.264 30.2216C234.733 31.2484 235.37 32.0412 236.176 32.6013C236.982 33.1606 237.93 33.4701 239.019 33.5282C240.108 33.5859 241.295 33.3706 242.581 32.8806C243.539 32.5077 244.373 32.0412 245.081 31.4814C245.789 30.9212 246.425 30.239 246.993 29.4347C247.559 28.6294 248.075 27.7022 248.545 26.6528C249.013 25.603 249.486 24.4023 249.966 23.0488C250.053 22.676 249.971 22.3435 249.721 22.0519Z" clip-rule="evenodd"/></svg>